control3min_grf.mot
version=1
nRows=15
nColumns 19
inDegrees=yes
endheader
time	1_ground_force_vx	1_ground_force_vy	1_ground_force_vz	1_ground_force_px	1_ground_force_py	1_ground_force_pz	1_ground_torque_x	1_ground_torque_y	1_ground_torque_z	2_ground_force_vx	2_ground_force_vy	2_ground_force_vz	2_ground_force_px	2_ground_force_py	2_ground_force_pz	2_ground_torque_x	2_ground_torque_y	2_ground_torque_z
            1.253500	            3.127483	          528.773161	          -10.167931	           -0.149560	            0.006478	           -0.461191	            0.001016	            0.171811	           -0.003304	            3.864213	          449.126766	           10.235007	           -0.167800	            0.005697	           -0.646980	            0.015581	            1.810929	            0.041269
            1.254000	            4.632683	          539.959497	          -12.370702	           -0.149464	            0.006476	           -0.460823	            0.002659	            0.309967	           -0.007101	            2.713381	          456.308683	            9.087908	           -0.167685	            0.005697	           -0.646802	            0.010387	            1.746858	            0.034791
            1.254500	            3.024744	          548.795381	          -13.062539	           -0.149763	            0.006476	           -0.460723	           -0.000426	           -0.077315	            0.001840	            2.131100	          461.832289	            8.779362	           -0.167511	            0.005695	           -0.646157	            0.007657	            1.659361	            0.031544
            1.255000	           -0.688442	          557.624764	          -12.327609	           -0.149980	            0.006476	           -0.460780	            0.000654	           -0.529945	            0.011716	            2.664467	          469.933468	            9.746596	           -0.167629	            0.005696	           -0.646629	            0.009108	            1.606327	            0.033316
            1.255500	           -4.722436	          568.436189	          -11.399957	           -0.149829	            0.006474	           -0.460196	            0.006304	           -0.758774	            0.015217	            4.416945	          477.852058	           11.510432	           -0.167724	            0.005697	           -0.646926	            0.014737	            1.594315	            0.038404
            1.256000	           -7.748918	          576.186015	          -11.129931	           -0.149418	            0.006476	           -0.460805	            0.010218	           -0.759815	            0.014677	            6.311487	          485.401429	           13.695247	           -0.167929	            0.005696	           -0.646836	            0.021768	            1.674109	            0.047234
            1.256500	           -8.486460	          585.924213	          -12.003488	           -0.150058	            0.006473	           -0.460182	            0.008071	           -0.557255	            0.011416	            6.889333	          494.237057	           15.322082	           -0.168067	            0.005697	           -0.647433	            0.025202	            1.807990	            0.056050
            1.257000	           -7.346129	          594.944735	          -13.618498	           -0.150063	            0.006472	           -0.459947	            0.004063	           -0.329030	            0.007532	            6.300460	          501.780415	           16.663248	           -0.168068	            0.005697	           -0.647206	            0.023627	            1.881698	            0.062488
            1.257500	           -5.427070	          604.146686	          -15.463948	           -0.149856	            0.006474	           -0.460418	            0.001795	           -0.199802	            0.005114	            4.249861	          511.718444	           16.324161	           -0.167913	            0.005700	           -0.648055	            0.016097	            1.938198	            0.061830
            1.258000	           -5.246988	          614.063981	          -16.018016	           -0.150033	            0.006474	           -0.460265	            0.001935	           -0.226487	            0.005908	            2.439410	          520.000783	           15.791349	           -0.167552	            0.005699	           -0.647415	            0.008843	            1.884984	            0.057243
            1.258500	           -6.852455	          623.075714	          -15.700251	           -0.150299	            0.006472	           -0.459928	            0.003744	           -0.340422	            0.008578	            1.375235	          529.206470	           15.261503	           -0.167639	            0.005699	           -0.647398	            0.004882	            1.878646	            0.054177
            1.259000	           -9.922374	          631.362095	          -14.418962	           -0.150232	            0.006473	           -0.460007	            0.006086	           -0.387261	            0.008844	            1.806344	          539.700592	           16.425030	           -0.167963	            0.005700	           -0.648023	            0.006674	            1.994077	            0.060687
            1.259500	          -12.580929	          640.731857	          -13.546762	           -0.150105	            0.006473	           -0.460175	            0.009221	           -0.469591	            0.009928	            2.665454	          548.535896	           18.427171	           -0.167982	            0.005700	           -0.647961	            0.009912	            2.039934	            0.068528
            1.260000	          -13.867041	          650.106800	          -13.824374	           -0.150210	            0.006473	           -0.459979	            0.012161	           -0.570115	            0.012123	            3.148579	          557.736957	           20.759282	           -0.167942	            0.005700	           -0.647892	            0.011652	            2.063964	            0.076822
            1.260500	          -13.367568	          658.945329	          -15.071716	           -0.150443	            0.006471	           -0.459709	            0.012986	           -0.640114	            0.014641	            2.408209	          568.407414	           22.909454	           -0.168004	            0.005700	           -0.648149	            0.008951	            2.112702	            0.085152
